Coordinates
version=1
nRows=7
nColumns=40
inDegrees=yes

Units are S.I. units (second, meters, Newtons, ...)
If the header above contains a line with 'inDegrees', this indicates whether rotational values are in degrees (yes) or radians (no).

endheader
time	pelvis_tilt	pelvis_list	pelvis_rotation	pelvis_tx	pelvis_ty	pelvis_tz	hip_flexion_r	hip_adduction_r	hip_rotation_r	knee_angle_r	knee_angle_r_beta	ankle_angle_r	subtalar_angle_r	mtp_angle_r	hip_flexion_l	hip_adduction_l	hip_rotation_l	knee_angle_l	knee_angle_l_beta	ankle_angle_l	subtalar_angle_l	mtp_angle_l	lumbar_extension	lumbar_bending	lumbar_rotation	arm_flex_r	arm_add_r	arm_rot_r	elbow_flex_r	pro_sup_r	wrist_flex_r	wrist_dev_r	arm_flex_l	arm_add_l	arm_rot_l	elbow_flex_l	pro_sup_l	wrist_flex_l	wrist_dev_l
      5.55000000	    -40.86874622	      0.16956945	     -2.00895008	     -0.41597263	      0.62436947	     -0.91554927	    103.23026116	    -28.05286794	      0.44565406	     97.02277390	      1.69336685	     30.34615982	      0.00000000	      0.00000000	    104.37119066	    -30.15317578	      3.14988411	     97.85014667	      1.70780723	     32.39638586	      0.00000000	      0.00000000	    -19.87668361	      2.96689205	      7.60914779	    -28.17492961	    -58.31671750	     42.69591949	     99.95654151	     87.84314216	      0.00000000	      0.00000000	      7.28660566	    -60.44822566	     73.22776475	     99.34216149	     87.89154329	      0.00000000	      0.00000000
      5.55500000	    -40.87063318	      0.18309222	     -2.00599233	     -0.41603288	      0.62437005	     -0.91554364	    103.23900249	    -28.04365002	      0.46969009	     97.01674153	      1.69326157	     30.40023393	      0.00000000	      0.00000000	    104.36343743	    -30.15600537	      3.12597170	     97.84432188	      1.70770557	     32.40134353	      0.00000000	      0.00000000	    -19.88353027	      2.97273144	      8.31563351	    -30.13818277	    -57.80323229	     40.66581840	    100.01197816	     87.84676923	      0.00000000	      0.00000000	      9.55384403	    -60.28813026	     75.56420238	     99.22790402	     87.88555502	      0.00000000	      0.00000000
      5.56000000	    -40.94479825	      0.18595148	     -2.01479683	     -0.41617102	      0.62429239	     -0.91538767	    103.32608502	    -28.01176486	      0.46975762	     97.00949773	      1.69313514	     30.33058966	      0.00000000	      0.00000000	    104.44737042	    -30.18186664	      3.12038448	     97.81408184	      1.70717778	     32.35560349	      0.00000000	      0.00000000	    -19.80287080	      2.95565814	      7.75452888	    -28.54843312	    -58.24758131	     42.32693836	     99.99187040	     87.84176649	      0.00000000	      0.00000000	      7.71406799	    -60.43542217	     73.67763744	     99.32604230	     87.88214082	      0.00000000	      0.00000000
      5.56500000	    -40.93546685	      0.21899130	     -2.00165935	     -0.41616862	      0.62429482	     -0.91536043	    103.34495377	    -28.01497930	      0.52016055	     97.02058722	      1.69332869	     30.32580859	      0.00000000	      0.00000000	    104.40806670	    -30.17104369	      3.08423598	     97.81203258	      1.70714202	     32.39599740	      0.00000000	      0.00000000	    -19.83525907	      2.92632235	      7.40782073	    -27.74941866	    -58.48285804	     43.11405716	    100.02426008	     87.83463214	      0.00000000	      0.00000000	      6.49624440	    -60.50484082	     72.36332023	     99.39783027	     87.92339895	      0.00000000	      0.00000000
      5.57000000	    -41.03699308	      0.23230873	     -1.97712185	     -0.41634071	      0.62416616	     -0.91532188	    103.47939329	    -28.02860235	      0.53075686	     97.02479273	      1.69340209	     30.24511749	      0.00000000	      0.00000000	    104.52547529	    -30.14804453	      3.06847549	     97.80581946	      1.70703358	     32.27408743	      0.00000000	      0.00000000	    -19.69658489	      2.91628380	      7.00331985	    -26.52082839	    -58.77947922	     44.45214148	     99.97596316	     87.84216130	      0.00000000	      0.00000000	      5.36113122	    -60.58114257	     71.24353303	     99.45723916	     87.91210256	      0.00000000	      0.00000000
      5.57500000	    -40.97082586	      0.33054525	     -1.95515533	     -0.41618384	      0.62427411	     -0.91537569	    103.47054038	    -28.04171011	      0.66551737	     97.02926857	      1.69348021	     30.34587108	      0.00000000	      0.00000000	    104.34725713	    -30.14389040	      2.92113093	     97.78565524	      1.70668165	     32.40365424	      0.00000000	      0.00000000	    -19.75205140	      2.81165617	      6.03830639	    -23.72870802	    -59.43067271	     47.33477984	     99.93152164	     87.82452281	      0.00000000	      0.00000000	      2.60571767	    -60.72027581	     68.46600943	     99.61318488	     87.88170978	      0.00000000	      0.00000000
      5.58000000	    -41.08592445	      0.24187187	     -1.97413115	     -0.41643528	      0.62403702	     -0.91521038	    103.54809961	    -27.99412430	      0.57313009	     97.04069330	      1.69367961	     30.32274304	      0.00000000	      0.00000000	    104.56113335	    -30.14843347	      3.06176017	     97.76176902	      1.70626475	     32.36014323	      0.00000000	      0.00000000	    -19.72742196	      2.90547723	      5.79652521	    -23.63869922	    -59.58537343	     47.20477164	    100.07637643	     87.81644905	      0.00000000	      0.00000000	      0.84831673	    -60.73052809	     66.41881097	     99.76405562	     87.99101079	      0.00000000	      0.00000000
